<?xml version="1.0" encoding="UTF-8" standalone="no"?>
<!-- Created with Inkscape (http://www.inkscape.org/) -->

<svg
   xmlns:dc="http://purl.org/dc/elements/1.1/"
   xmlns:cc="http://creativecommons.org/ns#"
   xmlns:rdf="http://www.w3.org/1999/02/22-rdf-syntax-ns#"
   xmlns:svg="http://www.w3.org/2000/svg"
   xmlns="http://www.w3.org/2000/svg"
   xmlns:sodipodi="http://sodipodi.sourceforge.net/DTD/sodipodi-0.dtd"
   xmlns:inkscape="http://www.inkscape.org/namespaces/inkscape"
   width="358.33868"
   height="197.40625"
   id="svg3111"
   version="1.1"
   inkscape:version="0.48.2 r9819"
   sodipodi:docname="logo.svg">
  <defs
     id="defs3113" />
  <sodipodi:namedview
     id="base"
     pagecolor="#ffffff"
     bordercolor="#666666"
     borderopacity="1.0"
     inkscape:pageopacity="0.0"
     inkscape:pageshadow="2"
     inkscape:zoom="1.4"
     inkscape:cx="157.47997"
     inkscape:cy="41.131602"
     inkscape:document-units="px"
     inkscape:current-layer="layer1"
     showgrid="false"
     fit-margin-top="0"
     fit-margin-left="0"
     fit-margin-right="0"
     fit-margin-bottom="0"
     inkscape:window-width="1370"
     inkscape:window-height="791"
     inkscape:window-x="70"
     inkscape:window-y="0"
     inkscape:window-maximized="0"
     showguides="true"
     inkscape:guide-bbox="true" />
  <metadata
     id="metadata3116">
    <rdf:RDF>
      <cc:Work
         rdf:about="">
        <dc:format>image/svg+xml</dc:format>
        <dc:type
           rdf:resource="http://purl.org/dc/dcmitype/StillImage" />
        <dc:title />
      </cc:Work>
    </rdf:RDF>
  </metadata>
  <g
     inkscape:groupmode="layer"
     id="layer5"
     inkscape:label="Layer3"
     transform="translate(-12.067576,-14.40033)">
    <rect
       style="fill:#ffffff;fill-opacity:1;stroke:#ffffff;stroke-width:3.29999995;stroke-linecap:round;stroke-linejoin:round;stroke-miterlimit:4;stroke-opacity:1;stroke-dasharray:none"
       id="rect4071"
       width="174.25131"
       height="91.923882"
       x="28.789347"
       y="55.984894"
       transform="translate(12.067576,14.40033)" />
    <rect
       transform="translate(-180.18794,-55.087897)"
       style="fill:#ffffff;fill-opacity:1;stroke:#ffffff;stroke-width:3.32042956000000000;stroke-linecap:round;stroke-linejoin:round;stroke-miterlimit:4;stroke-opacity:1;stroke-dasharray:none"
       id="rect4075"
       width="56.568562"
       height="54.177937"
       x="421.03476"
       y="85.511185"
       ry="18.687826" />
    <rect
       transform="translate(-180.18794,-55.087897)"
       style="fill:#ffffff;fill-opacity:1;stroke:#ffffff;stroke-width:5.08713912999999973;stroke-linecap:round;stroke-linejoin:round;stroke-miterlimit:4;stroke-opacity:1;stroke-dasharray:none"
       id="rect4075-2"
       width="89.147034"
       height="80.695496"
       x="443.15164"
       y="132.09747"
       ry="27.834641" />
    <rect
       transform="translate(-180.18794,-55.087897)"
       style="fill:#ffffff;fill-opacity:1;stroke:#ffffff;stroke-width:3.56411338000000022;stroke-linecap:round;stroke-linejoin:round;stroke-miterlimit:4;stroke-opacity:1;stroke-dasharray:none"
       id="rect4075-20"
       width="48.617455"
       height="72.63063"
       x="422.97748"
       y="183.64417"
       ry="25.052794" />
    <path
       style="fill:#ffffff;fill-opacity:1;stroke:#ffffff;stroke-width:1px;stroke-linecap:butt;stroke-linejoin:miter;stroke-opacity:1"
       d="m 184.60538,15.326254 -14.64722,10.354063 10.85915,151.775423 8.33375,4.79822 31.56727,1.76777 25.00128,-85.105353 -17.42513,-83.842662 z"
       id="path4124"
       inkscape:connector-curvature="0"
       transform="translate(12.067576,14.40033)"
       sodipodi:nodetypes="cccccccc" />
  </g>
  <g
     inkscape:label="Layer 1"
     inkscape:groupmode="layer"
     id="layer1"
     transform="translate(-192.25552,-69.488227)">
    <g
       id="g3879"
       transform="matrix(0.73215535,0,0,0.71116885,854.8822,49.236552)" />
    <path
       style="fill:#009de1;fill-opacity:1;stroke:none;display:inline"
       d="M 241.875 0 C 219.92286 0 199.56427 5.91879 182.5625 16.03125 C 212.26802 34.33946 231.8125 65.237043 231.8125 100.28125 C 231.8125 133.63428 214.098 163.24152 186.78125 181.8125 C 202.88578 190.45604 221.72197 195.40625 241.875 195.40625 C 264.43488 195.40625 285.33 189.12697 302.625 178.46875 L 304.15625 177.53125 L 305.90625 178.03125 L 358.34375 193 L 336.28125 148.9375 L 335.25 146.90625 L 336.4375 144.96875 C 345.02741 130.94681 349.90625 114.83275 349.90625 97.6875 C 349.90625 43.913203 301.79883 0 241.875 0 z M 116.40625 2.03125 C 56.482416 2.03125 8.375 45.913203 8.375 99.6875 C 8.375 116.83275 13.25384 132.94681 21.84375 146.96875 L 23.03125 148.90625 L 22.03125 150.9375 L 0 195 L 52.375 180.03125 L 54.125 179.53125 L 55.65625 180.5 C 72.95125 191.15822 93.84637 197.40625 116.40625 197.40625 C 176.3287 197.40625 224.46875 153.46028 224.46875 99.6875 C 224.46875 45.914723 176.33008 2.03125 116.40625 2.03125 z M 255 18.71875 C 269.93902 18.71875 282.0625 30.236113 282.0625 44.40625 C 282.0625 56.900864 272.62697 67.358148 260.15625 69.65625 C 260.15125 69.66185 260.09375 69.71875 260.09375 69.71875 L 260.03125 69.65625 C 258.39728 69.949859 256.72318 70.125 255 70.125 C 253.61012 70.125 252.24039 70.005238 250.90625 69.8125 L 250.78125 69.90625 C 250.78125 69.90625 250.7004 69.798349 250.6875 69.78125 C 237.78829 67.814949 227.90625 57.18611 227.90625 44.40625 C 227.90625 30.236113 240.06098 18.71875 255 18.71875 z M 253.625 21.84375 C 253.11188 21.87154 252.59766 21.94232 252.09375 22 C 251.03675 23.503844 248.80162 26.796605 246.84375 30.9375 C 248.93213 31.6804 251.26076 32.291818 253.6875 32.5 L 253.625 21.84375 z M 256.875 21.84375 L 256.9375 32.5 C 259.33731 32.33456 261.70205 31.788526 263.84375 31.09375 C 263.51648 30.391778 263.1795 29.715218 262.84375 29.0625 C 261.14916 25.768075 259.51128 23.263907 258.6875 22.0625 C 258.09251 21.97502 257.48388 21.888585 256.875 21.84375 z M 247.5625 22.9375 C 244.51913 23.878591 241.73762 25.368702 239.375 27.3125 C 240.38368 27.945834 241.93438 28.819416 243.8125 29.6875 C 245.0778 27.002254 246.41611 24.71545 247.5625 22.9375 z M 263.1875 23.15625 C 263.9866 24.455375 264.85585 25.982198 265.78125 27.78125 C 266.13924 28.477217 266.49145 29.217185 266.84375 29.96875 C 268.64672 29.217333 270.17384 28.44385 271.25 27.84375 C 268.94442 25.807743 266.20574 24.205369 263.1875 23.15625 z M 237.03125 29.53125 C 233.73141 33.117582 231.60226 37.693807 231.21875 42.75 L 240.15625 42.75 C 240.35644 39.224813 241.29685 35.727966 242.5625 32.53125 C 240.07604 31.413503 238.11913 30.258168 237.03125 29.53125 z M 273.5 30.125 C 272.3211 30.826457 270.41701 31.838712 268.09375 32.8125 C 269.35092 35.936535 270.36341 39.341978 270.6875 42.75 L 278.78125 42.75 C 278.41557 37.976349 276.4925 33.613318 273.5 30.125 z M 245.625 33.78125 C 244.48492 36.653254 243.58621 39.749981 243.375 42.75 L 253.71875 42.75 L 253.6875 35.5 C 250.77097 35.289859 248.03582 34.620274 245.625 33.78125 z M 265.0625 33.9375 C 262.59716 34.74549 259.84559 35.402716 256.9375 35.5625 L 256.96875 42.75 L 267.40625 42.75 C 267.08949 39.828792 266.19217 36.782247 265.0625 33.9375 z M 231.21875 45.90625 C 231.56938 50.989227 233.67434 55.607235 236.96875 59.21875 C 238.07311 58.573726 239.68062 57.694927 241.9375 56.65625 C 242.25588 56.509723 242.57264 56.365277 242.90625 56.21875 C 241.54888 52.967912 240.47868 49.423808 240.1875 45.90625 L 231.21875 45.90625 z M 243.4375 45.90625 C 243.7258 48.904745 244.68014 52.062175 245.90625 55.03125 C 248.39181 54.123456 251.08419 53.382933 253.78125 53.15625 L 253.75 45.90625 L 243.4375 45.90625 z M 257 45.90625 L 257.03125 53.15625 C 259.8326 53.374384 262.63352 54.11121 265.1875 55.03125 C 266.41676 52.079948 267.33316 48.922754 267.5 45.90625 L 257 45.90625 z M 270.78125 45.90625 C 270.61909 49.472518 269.58802 53.014555 268.21875 56.25 C 268.24825 56.26269 268.2832 56.26857 268.3125 56.28125 C 270.6312 57.282949 272.28668 58.140516 273.4375 58.78125 C 276.50837 55.23637 278.44741 50.784279 278.78125 45.90625 L 270.78125 45.90625 z M 253.625 56.1875 C 251.53165 56.424908 249.3136 57.050841 247.1875 57.8125 C 247.58337 58.632382 247.96676 59.43105 248.375 60.1875 C 250.03459 63.262674 251.61717 65.598005 252.5625 66.9375 C 252.98304 66.9779 253.417 67.01181 253.84375 67.03125 L 253.78125 56.1875 C 253.72875 56.193 253.67772 56.1815 253.625 56.1875 z M 257.03125 56.1875 L 257.09375 66.96875 C 257.49575 66.93555 257.88524 66.89559 258.28125 66.84375 C 259.20673 65.626769 260.82809 63.3933 262.53125 60.40625 C 262.99142 59.599189 263.43318 58.729619 263.875 57.84375 C 261.63179 57.057037 259.25287 56.408609 257.03125 56.1875 z M 244.15625 59.03125 C 243.90165 59.143343 243.62013 59.262187 243.375 59.375 C 241.71327 60.139773 240.31701 60.857037 239.28125 61.4375 C 241.81883 63.546547 244.83546 65.153125 248.15625 66.09375 C 247.32018 64.790257 246.39636 63.307977 245.4375 61.53125 C 245.00924 60.737703 244.57509 59.894215 244.15625 59.03125 z M 266.9375 59.03125 C 266.45222 60.00068 265.93719 60.936134 265.4375 61.8125 C 264.57517 63.324872 263.74294 64.600028 262.96875 65.75 C 266.03337 64.718946 268.8135 63.10989 271.15625 61.0625 C 270.0822 60.489594 268.64199 59.767606 266.9375 59.03125 z M 301.6875 64.375 L 305.78125 64.46875 L 305.53125 76.90625 L 301.4375 76.8125 L 301.6875 64.375 z M 63.25 66.28125 C 69.049994 66.28125 76.037507 66.900002 83.4375 68.5 L 81.9375 81.09375 C 74.337508 79.793751 69.437494 79.1875 63.4375 79.1875 C 56.737507 79.1875 55.25 80.381255 55.25 85.28125 C 55.25 91.68124 55.531261 91.78125 66.03125 94.28125 C 84.031232 98.58125 84.9375 102.08751 84.9375 115.1875 C 84.9375 128.38749 80.63123 134.90625 60.53125 134.90625 C 52.831258 134.90625 44.731244 133.19375 39.03125 130.59375 L 41.53125 119 C 47.631244 120.9 53.850007 122.1875 60.75 122.1875 C 68.449992 122.1875 69.9375 120.69374 69.9375 115.09375 C 69.9375 109.09376 69.649989 108.4 58.75 106 C 42.650016 102.5 40.25 99.30624 40.25 84.90625 C 40.25 71.606263 44.950018 66.28125 63.25 66.28125 z M 95.53125 67.28125 L 137.4375 67.28125 L 137.4375 80.59375 L 110.53125 80.59375 L 110.53125 92.78125 L 135.34375 92.78125 L 135.34375 106.09375 L 110.53125 106.09375 L 110.53125 120.59375 L 137.4375 120.59375 L 137.4375 133.90625 L 95.53125 133.90625 L 95.53125 67.28125 z M 143.5625 67.28125 L 194.34375 67.28125 L 194.34375 80.59375 L 176.46875 80.59375 L 176.46875 133.90625 L 161.46875 133.90625 L 161.46875 80.59375 L 143.5625 80.59375 L 143.5625 67.28125 z M 278.59375 74.25 L 288 84.15625 L 284.96875 86.875 L 275.5625 76.9375 L 278.59375 74.25 z M 328.6875 74.46875 L 331.65625 77.21875 L 322.75 86.34375 L 319.78125 83.625 L 328.6875 74.46875 z M 303.40625 84.75 C 309.7479 84.75 314.11721 86.43855 316.875 89.21875 C 319.63279 91.99895 320.75 95.84215 320.75 100.09375 C 320.75 104.39205 318.78195 109.13512 316.8125 112.8125 C 314.894 116.39474 313.0356 118.89994 312.9375 119.03125 L 312.65625 125.75 L 312.65625 125.90625 L 312.53125 126.03125 C 312.53125 126.03125 312.36334 126.13035 312.03125 126.28125 C 311.69916 126.43216 311.14461 126.63044 310.40625 126.8125 C 308.92952 127.17661 306.56344 127.50295 302.875 127.375 C 299.18844 127.24711 297.1721 126.81251 296.0625 126.375 C 295.5077 126.15624 295.20375 125.93273 295 125.75 C 294.89812 125.6586 294.82716 125.56749 294.78125 125.5 C 294.73545 125.4325 294.6875 125.34375 294.6875 125.34375 L 294.6875 125.3125 L 294.6875 125.25 L 294.6875 117.75 C 294.35412 117.42514 286.84375 110.03392 286.84375 101.625 C 286.84375 97.38377 287.75494 93.16837 290.3125 90 C 292.87006 86.83163 297.04925 84.75 303.40625 84.75 z M 304.25 87.125 C 302.83204 87.1 300.01025 87.58454 297.34375 88.9375 C 294.67725 90.29046 292.1435 92.49826 291.1875 95.875 C 290.47056 98.40734 290.08678 100.12962 289.90625 101.25 C 289.73945 102.2854 289.80348 102.72421 289.84375 102.875 C 289.92625 102.7963 290.03125 102.6875 290.03125 102.6875 L 290.15625 102.53125 L 290.34375 102.53125 L 294.125 102.53125 C 294.0421 101.97927 293.72588 99.70235 294.5625 96.71875 C 295.50564 93.35526 297.97765 89.4517 303.8125 87.5625 C 304.26536 87.41588 304.5846 87.29701 304.78125 87.1875 C 304.64354 87.1614 304.48602 87.1293 304.25 87.125 z M 266.40625 102.03125 L 278.6875 102.3125 L 278.59375 106.28125 L 266.3125 106.03125 L 266.40625 102.03125 z M 328.84375 102.3125 L 340.875 102.3125 L 340.875 106.28125 L 328.84375 106.28125 L 328.84375 102.3125 z M 260.625 119.5625 C 262.56358 119.5555 264.06446 119.56055 264.71875 119.59375 C 267.33587 119.72824 269.56237 122.27193 269.71875 125.25 C 269.87512 128.22808 269.8125 173.38486 269.8125 176.34375 C 269.8125 179.30264 266.71351 181.96492 264.59375 182.125 C 262.47398 182.28506 245.77187 182.39399 242.65625 182.125 C 239.54063 181.85601 237.9307 179.24113 237.6875 176.5 C 237.44431 173.75886 237.6209 128.69753 237.5625 125.5 C 237.5041 122.30246 240.23502 119.70625 243.03125 119.71875 C 245.12842 119.72775 254.80928 119.5843 260.625 119.5625 z M 253.6875 123.53125 C 252.03276 123.53925 250.3978 123.5565 249.8125 123.5625 C 248.64199 123.5734 248.6567 124.78925 249.84375 124.84375 C 251.03084 124.89815 256.44125 124.90625 257.6875 124.90625 C 258.93375 124.90625 259.00179 123.6359 257.6875 123.5625 C 257.03036 123.5262 255.34223 123.52315 253.6875 123.53125 z M 295.90625 129.6875 C 295.90625 129.6875 296.95462 131.21875 302.96875 131.21875 C 308.98289 131.21875 311.3125 130.1875 311.3125 130.1875 L 311.3125 136.8125 L 307.40625 137.3125 C 307.40625 137.3125 307.65249 141.625 303.46875 141.625 C 299.285 141.625 299.8125 137.3125 299.8125 137.3125 L 296.15625 137.0625 L 295.90625 129.6875 z M 240.03125 130.15625 L 240.09375 171.4375 L 267.21875 171.375 L 267.28125 130.21875 L 240.03125 130.15625 z M 253.65625 174.125 C 252.3313 174.125 251.25 175.31423 251.25 176.78125 C 251.25 178.24827 252.3313 179.4375 253.65625 179.4375 C 254.9812 179.4375 256.0625 178.24827 256.0625 176.78125 C 256.0625 175.31423 254.9812 174.125 253.65625 174.125 z "
       transform="translate(192.25552,69.488227)"
       id="path3788-1-3" />
  </g>
  <g
     inkscape:groupmode="layer"
     id="layer2"
     inkscape:label="Layer"
     transform="translate(-59.824714,-14.40033)" />
</svg>
